<svg width="230" height="230" viewBox="0 0 230 230" fill="none" xmlns="http://www.w3.org/2000/svg">
<path d="M229.444 126.453L218.594 125.825L218.709 123.842L227.854 124.372L228.18 118.749L219.035 118.22L219.15 116.237L230 116.865L229.444 126.453Z" fill="#F4F4F4"/>
<path d="M217.225 133.737C217.424 132.648 217.838 131.709 218.467 130.92C219.105 130.132 219.888 129.565 220.814 129.219C221.75 128.875 222.737 128.798 223.776 128.988C224.814 129.177 225.705 129.598 226.449 130.249C227.203 130.902 227.734 131.709 228.042 132.669C228.361 133.632 228.42 134.657 228.221 135.746C228.022 136.835 227.603 137.773 226.964 138.56C226.336 139.35 225.559 139.917 224.633 140.263C223.707 140.609 222.719 140.687 221.671 140.495C220.622 140.304 219.726 139.882 218.982 139.231C218.238 138.58 217.707 137.773 217.389 136.811C217.081 135.85 217.026 134.826 217.225 133.737ZM218.966 134.055C218.836 134.767 218.876 135.437 219.088 136.065C219.309 136.694 219.675 137.223 220.186 137.653C220.707 138.085 221.324 138.366 222.036 138.496C222.749 138.626 223.42 138.58 224.05 138.359C224.69 138.139 225.22 137.774 225.64 137.262C226.07 136.751 226.35 136.14 226.48 135.428C226.61 134.716 226.565 134.045 226.343 133.416C226.132 132.788 225.766 132.259 225.245 131.827C224.734 131.397 224.123 131.117 223.41 130.987C222.697 130.857 222.021 130.901 221.381 131.121C220.751 131.342 220.221 131.708 219.791 132.219C219.372 132.731 219.096 133.343 218.966 134.055Z" fill="#F4F4F4"/>
<path d="M224.891 148.816C224.618 149.716 224.231 150.453 223.733 151.026C223.231 151.609 222.649 151.994 221.986 152.182C221.323 152.37 220.61 152.348 219.848 152.117C219.095 151.888 218.491 151.51 218.035 150.982C217.588 150.458 217.319 149.814 217.226 149.051C217.131 148.297 217.22 147.47 217.494 146.57L218.207 144.224L215.206 143.313L215.793 141.384L226.191 144.54L224.891 148.816ZM219.155 146.977C218.899 147.818 218.883 148.511 219.107 149.054C219.332 149.598 219.775 149.97 220.439 150.172C221.102 150.373 221.679 150.31 222.168 149.983C222.656 149.656 223.029 149.072 223.285 148.231L223.97 145.974L219.841 144.72L219.155 146.977Z" fill="#F4F4F4"/>
<path d="M217.76 162.879L219.15 159.559L210.701 156.024L211.474 154.178L219.923 157.712L221.308 154.406L222.884 155.065L219.335 163.538L217.76 162.879Z" fill="#F4F4F4"/>
<path d="M207.204 174.531C205.961 173.827 205.224 172.84 204.993 171.568C204.762 170.296 205.066 168.846 205.906 167.217L204.906 166.652L205.824 165.032L206.824 165.597C207.807 164.05 208.902 163.041 210.109 162.571C211.31 162.109 212.532 162.23 213.775 162.933C215.018 163.636 215.75 164.621 215.972 165.888C216.198 167.169 215.9 168.629 215.079 170.268L216.038 170.81L215.12 172.43L214.161 171.888C213.177 173.435 212.08 174.437 210.87 174.893C209.669 175.355 208.447 175.234 207.204 174.531ZM207.284 167.997C206.753 169.123 206.559 170.095 206.703 170.913C206.855 171.736 207.345 172.382 208.174 172.851C209.002 173.319 209.807 173.4 210.588 173.093C211.363 172.795 212.09 172.131 212.769 171.1L207.284 167.997ZM212.803 164.648C211.984 164.184 211.186 164.101 210.41 164.399C209.63 164.707 208.894 165.366 208.202 166.377L213.687 169.48C214.764 167.201 214.469 165.59 212.803 164.648Z" fill="#F4F4F4"/>
<path d="M198.212 177.314C198.876 176.429 199.666 175.773 200.581 175.347C201.504 174.927 202.458 174.769 203.441 174.872C204.432 174.982 205.35 175.353 206.195 175.986C207.04 176.619 207.649 177.393 208.024 178.307C208.407 179.228 208.522 180.187 208.369 181.184C208.224 182.187 207.819 183.131 207.154 184.017C206.49 184.902 205.696 185.555 204.773 185.975C203.858 186.401 202.909 186.562 201.926 186.459C200.942 186.355 200.024 185.984 199.171 185.345C198.319 184.706 197.705 183.929 197.33 183.015C196.955 182.1 196.841 181.141 196.985 180.138C197.139 179.141 197.547 178.2 198.212 177.314ZM199.628 178.376C199.193 178.955 198.93 179.572 198.839 180.228C198.756 180.89 198.847 181.527 199.112 182.14C199.386 182.758 199.812 183.285 200.392 183.719C200.971 184.153 201.592 184.412 202.255 184.495C202.925 184.584 203.563 184.493 204.167 184.222C204.78 183.957 205.304 183.535 205.739 182.956C206.173 182.376 206.432 181.756 206.515 181.094C206.606 180.438 206.515 179.801 206.242 179.182C205.977 178.57 205.554 178.047 204.975 177.612C204.395 177.178 203.77 176.916 203.099 176.827C202.437 176.745 201.799 176.836 201.187 177.1C200.582 177.371 200.063 177.796 199.628 178.376Z" fill="#F4F4F4"/>
<path d="M194.842 197.858L186.992 190.348L188.366 188.913L194.982 195.243L197.946 192.15L196.047 190.205C194.984 189.117 194.177 188.172 193.625 187.372C193.08 186.579 192.779 185.854 192.721 185.197C192.67 184.547 192.909 183.946 193.439 183.393C193.625 183.199 193.917 182.969 194.314 182.705L195.484 184.018C195.361 184.086 195.239 184.184 195.117 184.311C194.681 184.767 194.642 185.346 195.001 186.047C195.361 186.764 196.103 187.702 197.226 188.863L200.371 192.086L194.842 197.858Z" fill="#F4F4F4"/>
<path d="M191.698 200.796L190.162 202.055L185.267 196.095L185.649 205.756L184.197 206.947L177.303 198.552L178.839 197.292L183.724 203.241L183.351 193.591L184.804 192.4L191.698 200.796Z" fill="#F4F4F4"/>
<path d="M170.68 202.798C171.614 202.204 172.584 201.869 173.591 201.793C174.603 201.725 175.551 201.913 176.434 202.357C177.323 202.809 178.051 203.48 178.618 204.37C179.185 205.261 179.482 206.199 179.51 207.187C179.543 208.183 179.312 209.121 178.817 210C178.327 210.888 177.615 211.629 176.68 212.223C175.746 212.817 174.773 213.147 173.761 213.215C172.754 213.291 171.809 213.107 170.925 212.664C170.042 212.22 169.314 211.549 168.742 210.65C168.169 209.751 167.869 208.808 167.842 207.821C167.814 206.833 168.045 205.895 168.535 205.008C169.03 204.129 169.745 203.392 170.68 202.798ZM171.63 204.29C171.018 204.679 170.554 205.164 170.238 205.745C169.926 206.336 169.787 206.964 169.818 207.63C169.856 208.305 170.069 208.948 170.458 209.559C170.847 210.17 171.336 210.631 171.927 210.942C172.523 211.262 173.152 211.401 173.813 211.361C174.48 211.329 175.119 211.119 175.73 210.73C176.341 210.342 176.803 209.852 177.114 209.262C177.431 208.681 177.57 208.052 177.533 207.377C177.501 206.711 177.291 206.072 176.902 205.461C176.513 204.851 176.021 204.385 175.425 204.066C174.834 203.755 174.205 203.615 173.538 203.647C172.877 203.687 172.241 203.902 171.63 204.29Z" fill="#F4F4F4"/>
<path d="M152.088 212.136C153.11 211.735 154.122 211.594 155.124 211.712C156.121 211.843 157.01 212.211 157.792 212.815C158.565 213.424 159.146 214.224 159.535 215.215C159.925 216.207 160.038 217.19 159.876 218.165C159.714 219.139 159.311 220.009 158.666 220.773C158.015 221.55 157.179 222.139 156.157 222.54C155.329 222.865 154.516 223.017 153.718 222.996C152.921 222.976 152.178 222.784 151.491 222.42L152.256 220.803C153.299 221.305 154.355 221.347 155.424 220.927C156.118 220.655 156.679 220.258 157.107 219.734C157.539 219.22 157.803 218.633 157.9 217.973C157.996 217.313 157.91 216.641 157.642 215.958C157.373 215.274 156.979 214.723 156.459 214.305C155.939 213.887 155.344 213.631 154.674 213.538C154.007 213.455 153.327 213.55 152.634 213.822C151.564 214.241 150.82 214.994 150.402 216.08L148.734 215.401C148.991 214.667 149.409 214.02 149.989 213.459C150.56 212.902 151.26 212.461 152.088 212.136Z" fill="#F4F4F4"/>
<path d="M136.813 216.868L138.58 223.847L140.594 217.2L141.467 216.981L146.358 221.802L144.629 214.91L146.481 214.446L149.124 224.98L147.512 225.384L141.593 219.461L139.215 227.463L137.619 227.862L134.946 217.336L136.813 216.868Z" fill="#F4F4F4"/>
<path d="M127.079 218.229C128.179 218.102 129.199 218.223 130.138 218.593C131.078 218.973 131.849 219.555 132.451 220.339C133.054 221.133 133.416 222.054 133.538 223.102C133.66 224.15 133.518 225.125 133.112 226.026C132.707 226.937 132.09 227.68 131.261 228.255C130.433 228.841 129.469 229.198 128.369 229.325C127.269 229.453 126.249 229.327 125.308 228.946C124.369 228.576 123.599 227.999 122.997 227.215C122.396 226.431 122.033 225.51 121.91 224.452C121.787 223.394 121.929 222.414 122.334 221.513C122.74 220.612 123.357 219.869 124.185 219.284C125.015 218.708 125.979 218.357 127.079 218.229ZM127.283 219.986C126.564 220.07 125.935 220.304 125.396 220.689C124.858 221.085 124.459 221.59 124.196 222.203C123.936 222.827 123.847 223.498 123.93 224.218C124.014 224.937 124.254 225.565 124.65 226.102C125.047 226.649 125.552 227.049 126.164 227.301C126.778 227.563 127.445 227.652 128.165 227.568C128.884 227.485 129.513 227.245 130.051 226.85C130.589 226.464 130.989 225.96 131.25 225.336C131.512 224.722 131.601 224.056 131.518 223.337C131.434 222.618 131.194 221.984 130.797 221.437C130.401 220.9 129.896 220.5 129.282 220.238C128.669 219.987 128.003 219.903 127.283 219.986Z" fill="#F4F4F4"/>
<path d="M111.316 228.255L114.918 228.227L114.847 219.073L116.85 219.058L116.92 228.211L120.507 228.184L120.52 229.89L111.329 229.961L111.316 228.255Z" fill="#F4F4F4"/>
<path d="M103.568 229.359C102.631 229.268 101.832 229.035 101.172 228.659C100.501 228.283 100.008 227.788 99.6929 227.176C99.3778 226.564 99.2586 225.861 99.3353 225.068C99.4111 224.286 99.6627 223.619 100.09 223.068C100.517 222.527 101.096 222.137 101.826 221.895C102.546 221.653 103.375 221.577 104.312 221.668L106.754 221.904L107.056 218.785L109.065 218.979L108.019 229.789L103.568 229.359ZM104.241 223.376C103.365 223.291 102.683 223.412 102.194 223.739C101.704 224.066 101.426 224.574 101.36 225.264C101.293 225.954 101.468 226.506 101.886 226.92C102.303 227.335 102.95 227.584 103.825 227.669L106.174 227.896L106.59 223.603L104.241 223.376Z" fill="#F4F4F4"/>
<path d="M89.6608 217.778L89.9969 216.12L97.9853 217.738L95.8269 228.382L88.0516 226.807L88.3877 225.15L94.1849 226.324L94.7461 223.556L89.6031 222.515L89.933 220.888L95.076 221.929L95.6711 218.995L89.6608 217.778Z" fill="#F4F4F4"/>
<path d="M77.57 221.945L81.0123 223.004L83.708 214.255L85.6221 214.844L82.9264 223.593L86.3539 224.648L85.8513 226.279L77.0674 223.576L77.57 221.945Z" fill="#F4F4F4"/>
<path d="M71.1863 217.251C69.9852 216.743 69.1802 216.083 68.7714 215.27C68.349 214.463 68.3615 213.53 68.8091 212.473C69.2768 211.368 69.9883 210.669 70.9437 210.377C71.895 210.094 73.0094 210.222 74.2868 210.762L78.5907 212.581L74.3572 222.584L72.5269 221.81L73.9603 218.424L71.1863 217.251ZM73.7678 212.227C73.0433 211.921 72.4151 211.852 71.8831 212.02C71.3512 212.189 70.9501 212.592 70.68 213.23C70.1679 214.44 70.665 215.363 72.1711 216L74.559 217.009L76.1557 213.237L73.7678 212.227Z" fill="#F4F4F4"/>
<path d="M47.4886 208.061L53.5228 199.029L55.1756 200.131L50.0896 207.744L54.7767 210.871L59.8627 203.258L61.5154 204.361L55.4812 213.393L47.4886 208.061Z" fill="#F4F4F4"/>
<path d="M47.4382 193.855C48.2761 194.579 48.8761 195.412 49.2383 196.353C49.5936 197.303 49.6857 198.264 49.5145 199.237C49.3365 200.218 48.9023 201.108 48.212 201.906C47.5217 202.704 46.7072 203.258 45.7685 203.569C44.8231 203.887 43.858 203.935 42.8732 203.713C41.8816 203.499 40.9669 203.031 40.129 202.307C39.2911 201.583 38.6945 200.747 38.3391 199.797C37.977 198.856 37.8815 197.898 38.0528 196.925C38.224 195.952 38.6582 195.063 39.3553 194.257C40.0523 193.451 40.8702 192.892 41.8089 192.582C42.7476 192.272 43.7127 192.224 44.7042 192.437C45.689 192.659 46.6003 193.132 47.4382 193.855ZM46.2809 195.194C45.7328 194.72 45.1345 194.415 44.4862 194.279C43.8311 194.151 43.1888 194.198 42.5592 194.419C41.9228 194.649 41.3678 195.038 40.894 195.586C40.4203 196.133 40.1192 196.735 39.9908 197.389C39.8556 198.052 39.9024 198.694 40.1311 199.315C40.3531 199.944 40.7381 200.495 41.2863 200.969C41.8345 201.442 42.4361 201.743 43.0912 201.871C43.7395 202.008 44.3819 201.961 45.0182 201.731C45.6478 201.509 46.1995 201.125 46.6732 200.577C47.147 200.029 47.4514 199.424 47.5866 198.761C47.715 198.107 47.6682 197.465 47.4463 196.836C47.2175 196.214 46.8291 195.667 46.2809 195.194Z" fill="#F4F4F4"/>
<path d="M30.488 192.759C29.8491 192.068 29.4086 191.362 29.1664 190.643C28.9171 189.915 28.8791 189.218 29.0523 188.552C29.2254 187.885 29.6048 187.282 30.1904 186.742C30.7684 186.209 31.4005 185.879 32.0868 185.753C32.7654 185.633 33.4575 185.727 34.163 186.033C34.8615 186.332 35.5302 186.827 36.1691 187.519L37.8329 189.32L40.1373 187.194L41.5063 188.676L33.5208 196.043L30.488 192.759ZM34.9774 188.745C34.3807 188.099 33.791 187.735 33.2083 187.653C32.6256 187.571 32.0795 187.765 31.5699 188.235C31.0604 188.705 30.8231 189.234 30.8583 189.821C30.8934 190.408 31.2093 191.024 31.806 191.67L33.4066 193.403L36.578 190.478L34.9774 188.745Z" fill="#F4F4F4"/>
<path d="M21.9569 179.491L24.118 182.37L31.446 176.878L32.6476 178.479L25.3197 183.971L27.4714 186.838L26.1052 187.862L20.5907 180.515L21.9569 179.491Z" fill="#F4F4F4"/>
<path d="M17.3479 164.766C18.5803 164.045 19.8049 163.904 21.0215 164.342C22.2382 164.781 23.3408 165.771 24.3293 167.314L25.3206 166.734L26.2623 168.341L25.2709 168.921C26.1165 170.548 26.4403 172 26.2422 173.279C26.0389 174.549 25.3211 175.544 24.0886 176.266C22.8562 176.987 21.6361 177.126 20.4284 176.682C19.2065 176.235 18.0923 175.245 17.086 173.712L16.1349 174.269L15.1932 172.663L16.1443 172.106C15.2987 170.479 14.982 169.028 15.1943 167.753C15.3976 166.484 16.1154 165.488 17.3479 164.766ZM22.9629 168.114C22.2547 167.09 21.5108 166.435 20.7309 166.148C19.9422 165.867 19.137 165.967 18.3154 166.448C17.4938 166.929 17.02 167.584 16.8941 168.412C16.763 169.232 16.973 170.194 17.5241 171.298L22.9629 168.114ZM23.092 174.566C23.9047 174.09 24.3766 173.442 24.5077 172.622C24.6336 171.793 24.4326 170.826 23.9046 169.721L18.4658 172.905C19.8978 174.979 21.4399 175.533 23.092 174.566Z" fill="#F4F4F4"/>
<path d="M19.3983 155.43C19.8259 156.451 19.992 157.464 19.8965 158.468C19.7914 159.476 19.4454 160.378 18.8583 161.173C18.2617 161.972 17.4764 162.575 16.5026 162.982C15.5287 163.389 14.5525 163.523 13.5737 163.383C12.5855 163.247 11.6999 162.861 10.917 162.224C10.1246 161.591 9.51463 160.764 9.08703 159.743C8.65942 158.722 8.49815 157.708 8.6032 156.699C8.69871 155.695 9.04 154.796 9.62708 154.001C10.2142 153.206 10.9994 152.602 11.9828 152.191C12.9662 151.78 13.9472 151.644 14.9259 151.784C15.9047 151.924 16.7902 152.311 17.5826 152.944C18.3655 153.58 18.9707 154.409 19.3983 155.43ZM17.7657 156.113C17.486 155.445 17.0862 154.906 16.5665 154.495C16.0371 154.089 15.4412 153.845 14.7787 153.763C14.1066 153.685 13.4364 153.786 12.7681 154.066C12.0997 154.346 11.5622 154.75 11.1554 155.279C10.7391 155.812 10.4948 156.407 10.4226 157.065C10.3409 157.727 10.4399 158.392 10.7197 159.06C10.9994 159.728 11.4039 160.265 11.9332 160.672C12.453 161.082 13.0489 161.326 13.721 161.404C14.3836 161.486 15.049 161.387 15.7173 161.107C16.3856 160.828 16.928 160.422 17.3443 159.889C17.7511 159.36 17.9953 158.764 18.0771 158.102C18.1492 157.444 18.0455 156.781 17.7657 156.113Z" fill="#F4F4F4"/>
<path d="M3.40626 142.266L13.8626 139.307L14.4041 141.217L5.59095 143.712L6.75869 147.832L9.39815 147.182C10.8761 146.817 12.1 146.6 13.0698 146.529C14.0296 146.462 14.8077 146.57 15.4042 146.852C15.9907 147.138 16.3883 147.649 16.597 148.385C16.6704 148.644 16.7207 149.011 16.7481 149.487L15.022 149.831C15.0252 149.69 15.0028 149.535 14.9548 149.366C14.7828 148.759 14.303 148.432 13.5155 148.387C12.7152 148.334 11.5298 148.497 9.95939 148.877L5.58518 149.954L3.40626 142.266Z" fill="#F4F4F4"/>
<path d="M2.50171 138.326L2.18932 136.365L9.80941 135.153L1.27168 130.604L0.976372 128.75L11.7089 127.043L12.0213 129.004L4.41653 130.214L12.9389 134.765L13.2342 136.619L2.50171 138.326Z" fill="#F4F4F4"/>
<path d="M11.3746 119.121C11.4131 120.227 11.2099 121.232 10.765 122.138C10.3097 123.044 9.66679 123.765 8.83621 124.301C7.99528 124.837 7.04727 125.123 5.9922 125.16C4.93712 125.197 3.97667 124.976 3.11086 124.499C2.23471 124.023 1.54326 123.348 1.03653 122.476C0.519458 121.604 0.24169 120.615 0.20323 119.508C0.16477 118.402 0.373165 117.396 0.828416 116.491C1.27332 115.585 1.91107 114.864 2.74166 114.328C3.57224 113.792 4.52025 113.506 5.58567 113.469C6.65109 113.432 7.6167 113.652 8.48252 114.129C9.34833 114.606 10.0398 115.281 10.5568 116.153C11.0636 117.025 11.3362 118.014 11.3746 119.121ZM9.60583 119.182C9.58067 118.458 9.39769 117.813 9.0569 117.245C8.70577 116.678 8.23482 116.239 7.64406 115.928C7.04296 115.618 6.38037 115.475 5.6563 115.5C4.93222 115.525 4.28631 115.713 3.71855 116.064C3.14045 116.415 2.70114 116.886 2.40061 117.476C2.08973 118.066 1.94687 118.723 1.97204 119.447C1.9972 120.171 2.18534 120.816 2.53648 121.383C2.87727 121.951 3.34821 122.39 3.94932 122.701C4.54008 123.011 5.19749 123.154 5.92157 123.129C6.64564 123.104 7.29672 122.915 7.87482 122.564C8.44258 122.213 8.88189 121.743 9.19277 121.152C9.4933 120.562 9.63099 119.906 9.60583 119.182Z" fill="#F4F4F4"/>
<path d="M12.7657 97.7228C12.589 98.8049 12.1941 99.7466 11.581 100.548C10.9592 101.337 10.1887 101.914 9.26943 102.278C8.35181 102.631 7.36692 102.722 6.31476 102.55C5.2626 102.379 4.35852 101.975 3.60252 101.338C2.84652 100.701 2.30439 99.9109 1.97612 98.9666C1.6393 98.0104 1.5592 96.9913 1.73581 95.9092C1.8791 95.0313 2.16312 94.2549 2.58788 93.5801C3.01263 92.9053 3.55696 92.3652 4.22087 91.9599L5.22142 93.4435C4.25715 94.0827 3.68254 94.969 3.4976 96.1021C3.37763 96.8371 3.4336 97.5221 3.66552 98.1573C3.88721 98.7908 4.25743 99.3175 4.77616 99.7374C5.29489 100.157 5.91689 100.426 6.64217 100.545C7.36744 100.663 8.04276 100.605 8.66813 100.372C9.29349 100.138 9.8171 99.7573 10.239 99.2288C10.6506 98.6985 10.9164 98.0659 11.0364 97.3309C11.2213 96.1978 10.9532 95.1742 10.2319 94.2602L11.6677 93.1737C12.1683 93.7688 12.5119 94.4589 12.6984 95.2438C12.8865 96.0186 12.909 96.8449 12.7657 97.7228Z" fill="#F4F4F4"/>
<path d="M16.3042 82.5808L9.38385 80.5815L14.1083 85.6743L13.8564 86.5382L7.22313 88.3232L14.0497 90.3114L13.5154 92.1434L3.08179 89.1047L3.54659 87.511L11.6509 85.3949L5.9401 79.3038L6.40055 77.7249L16.8428 80.7338L16.3042 82.5808Z" fill="#F4F4F4"/>
<path d="M20.0789 73.3827C19.6285 74.3938 19.0049 75.2089 18.2079 75.828C17.4015 76.443 16.5075 76.8095 15.5259 76.9276C14.5349 77.0415 13.5571 76.884 12.5926 76.4549C11.6282 76.0259 10.8614 75.4074 10.2922 74.5995C9.71365 73.7874 9.38787 72.8782 9.31488 71.8721C9.23244 70.8618 9.4164 69.8511 9.86676 68.84C10.3171 67.8289 10.9455 67.0159 11.7519 66.401C12.5488 65.7818 13.4381 65.4132 14.4197 65.2951C15.4013 65.177 16.3791 65.3345 17.353 65.7678C18.3269 66.201 19.0985 66.8216 19.6676 67.6295C20.2367 68.4374 20.5625 69.3466 20.6449 70.3569C20.7179 71.363 20.5292 72.3716 20.0789 73.3827ZM18.462 72.6634C18.7566 72.002 18.8752 71.3415 18.8178 70.6819C18.7509 70.0182 18.52 69.4173 18.1252 68.8794C17.7209 68.3373 17.1878 67.919 16.5259 67.6246C15.864 67.3301 15.201 67.2163 14.5368 67.2832C13.8631 67.3458 13.2619 67.5765 12.7331 67.9752C12.1948 68.3698 11.7783 68.8978 11.4837 69.5593C11.1891 70.2207 11.0752 70.8833 11.1421 71.5471C11.1995 72.2066 11.4303 72.8075 11.8346 73.3496C12.2294 73.8875 12.7578 74.3037 13.4197 74.5981C14.0816 74.8926 14.7494 75.0085 15.423 74.9458C16.0872 74.879 16.6885 74.6483 17.2268 74.2538C17.7556 73.855 18.1673 73.3249 18.462 72.6634Z" fill="#F4F4F4"/>
<path d="M19.6023 54.4423L17.7817 57.5481L25.6854 62.1748L24.6731 63.9017L16.7694 59.275L14.9567 62.3674L13.4832 61.5048L18.1287 53.5797L19.6023 54.4423Z" fill="#F4F4F4"/>
<path d="M22.2179 47.7274C22.7719 46.9663 23.3784 46.3968 24.0375 46.0189C24.7026 45.6327 25.3791 45.4593 26.067 45.4989C26.7549 45.5386 27.4211 45.7926 28.0656 46.2611C28.7017 46.7235 29.1487 47.2787 29.4066 47.9266C29.6561 48.5684 29.6994 49.265 29.5365 50.0163C29.3797 50.7593 29.0243 51.5113 28.4702 52.2725L27.0272 54.2548L29.5633 56.0984L28.3761 57.7294L19.5876 51.3408L22.2179 47.7274ZM27.0344 51.3438C27.5519 50.6329 27.7939 49.9838 27.7605 49.3968C27.7271 48.8097 27.43 48.3123 26.8692 47.9047C26.3084 47.497 25.7434 47.3677 25.1742 47.5167C24.605 47.6657 24.0616 48.0957 23.5441 48.8066L22.1559 50.7137L25.6462 53.2509L27.0344 51.3438Z" fill="#F4F4F4"/>
<path d="M39.0937 41.7633L40.3538 42.8922L34.9129 48.957L26.821 41.7074L32.1168 35.8043L33.3768 36.9332L29.4283 41.3345L31.5322 43.2194L35.0351 39.3148L36.272 40.423L32.7691 44.3276L35.0001 46.3264L39.0937 41.7633Z" fill="#F4F4F4"/>
<path d="M41.8535 28.9556L39.198 31.3874L45.3865 38.1361L43.9099 39.4882L37.7214 32.7396L35.0774 35.1609L33.9236 33.9027L40.6997 27.6974L41.8535 28.9556Z" fill="#F4F4F4"/>
<path d="M48.8976 25.9774C49.9409 25.1954 50.917 24.8324 51.8257 24.8883C52.7365 24.9296 53.5366 25.4096 54.2259 26.3281C54.9463 27.2879 55.1926 28.254 54.9649 29.2262C54.731 30.1902 54.0592 31.088 52.9497 31.9196L49.2112 34.7215L42.6907 26.0332L44.2805 24.8417L46.4881 27.7833L48.8976 25.9774ZM51.9437 30.7342C52.573 30.2626 52.9487 29.7547 53.0708 29.2107C53.1929 28.6666 53.046 28.1174 52.6299 27.563C51.8412 26.5121 50.7928 26.477 49.4845 27.4575L47.4103 29.0121L49.8695 32.2888L51.9437 30.7342Z" fill="#F4F4F4"/>
<path d="M69.0128 9.98135L73.762 19.7497L71.9746 20.6176L67.9717 12.3842L62.9026 14.8454L66.9056 23.0788L65.1182 23.9466L60.3689 14.1782L69.0128 9.98135Z" fill="#F4F4F4"/>
<path d="M81.2618 17.1095C80.2137 17.467 79.1916 17.5643 78.1954 17.4013C77.1959 17.2285 76.3191 16.8226 75.565 16.1837C74.8075 15.5349 74.2583 14.7113 73.9173 13.7128C73.5763 12.7144 73.5087 11.7319 73.7146 10.7656C73.9171 9.7894 74.3626 8.93252 75.0513 8.19493C75.7365 7.44755 76.6032 6.89513 77.6513 6.53766C78.6994 6.1802 79.7233 6.08784 80.7228 6.26061C81.719 6.42358 82.5941 6.82456 83.3482 7.46354C84.1023 8.10253 84.6515 8.92614 84.9959 9.93438C85.3402 10.9426 85.4095 11.9299 85.2036 12.8963C84.9978 13.8627 84.5522 14.7196 83.8669 15.467C83.1783 16.2045 82.3099 16.7521 81.2618 17.1095ZM80.6902 15.4357C81.3758 15.2018 81.9411 14.8396 82.386 14.3491C82.8276 13.8487 83.1115 13.271 83.2378 12.616C83.3607 11.9511 83.3051 11.2761 83.0711 10.5908C82.8371 9.90563 82.4697 9.34239 81.9691 8.90113C81.4651 8.45007 80.887 8.16636 80.2348 8.04999C79.5793 7.92384 78.9087 7.97769 78.223 8.21154C77.5373 8.4454 76.9737 8.81249 76.5321 9.31281C76.0872 9.80335 75.8033 10.3811 75.6804 11.0459C75.5542 11.701 75.6081 12.3711 75.8421 13.0564C76.0761 13.7416 76.4451 14.3097 76.9491 14.7608C77.4498 15.202 78.0279 15.4857 78.6834 15.6119C79.3356 15.7283 80.0045 15.6695 80.6902 15.4357Z" fill="#F4F4F4"/>
<path d="M90.2463 3.15584C91.1664 2.95485 91.9984 2.93193 92.7422 3.08709C93.496 3.24004 94.1169 3.55968 94.6046 4.04603C95.0924 4.53238 95.4214 5.16458 95.5916 5.94263C95.7596 6.71058 95.7245 7.42229 95.4865 8.07776C95.2463 8.72313 94.8155 9.27248 94.1942 9.72581C93.5831 10.1769 92.8174 10.503 91.8973 10.704L89.5009 11.2274L90.1706 14.2891L88.1988 14.7198L85.8782 4.10999L90.2463 3.15584ZM91.4416 9.05659C92.3011 8.86886 92.9135 8.54451 93.2788 8.08357C93.6442 7.62262 93.7528 7.05364 93.6047 6.37663C93.4566 5.69963 93.1203 5.22783 92.5959 4.96125C92.0714 4.69466 91.3794 4.65524 90.52 4.84298L88.2146 5.34655L89.1362 9.56017L91.4416 9.05659Z" fill="#F4F4F4"/>
<path d="M106.577 2.40393L102.998 2.80546L104.02 11.902L102.029 12.1253L101.008 3.02872L97.4437 3.42852L97.2532 1.73254L106.387 0.707958L106.577 2.40393Z" fill="#F4F4F4"/>
<path d="M121.566 5.90046C121.56 7.32781 121.059 8.45329 120.062 9.27691C119.065 10.1005 117.651 10.545 115.819 10.6103L115.814 11.7584L113.951 11.7512L113.956 10.6031C112.124 10.503 110.708 10.0424 109.707 9.22144C108.717 8.40051 108.224 7.27636 108.23 5.84902C108.235 4.42167 108.736 3.30136 109.733 2.48809C110.74 1.66452 112.16 1.20972 113.992 1.1237L113.996 0.0221595L115.859 0.0293463L115.855 1.13089C117.687 1.23104 119.098 1.69676 120.088 2.52804C121.079 3.34898 121.571 4.47312 121.566 5.90046ZM115.825 9.02784C117.067 8.93954 118.01 8.63288 118.654 8.10786C119.298 7.57249 119.621 6.82903 119.625 5.87746C119.629 4.9259 119.306 4.18511 118.656 3.6551C118.016 3.12512 117.08 2.81639 115.849 2.72889L115.825 9.02784ZM110.201 5.85662C110.198 6.79785 110.516 7.53344 111.155 8.06342C111.805 8.59343 112.741 8.91251 113.962 9.02065L113.986 2.72171C111.47 2.89818 110.209 3.94315 110.201 5.85662Z" fill="#F4F4F4"/>
<path d="M128.697 12.3589C127.6 12.2102 126.642 11.8402 125.824 11.2492C125.008 10.6479 124.405 9.89298 124.017 8.98441C123.629 8.06558 123.507 7.08346 123.649 6.03803C123.791 4.99261 124.17 4.08374 124.787 3.31143C125.405 2.52887 126.187 1.96164 127.133 1.60975C128.08 1.24761 129.103 1.14093 130.2 1.28971C131.297 1.43849 132.254 1.81352 133.071 2.41481C133.889 3.00586 134.492 3.75567 134.881 4.66424C135.269 5.57281 135.392 6.55494 135.249 7.61061C135.105 8.66629 134.725 9.58028 134.109 10.3526C133.492 11.1249 132.71 11.6921 131.763 12.0543C130.816 12.4062 129.795 12.5077 128.697 12.3589ZM128.935 10.6063C129.653 10.7036 130.321 10.6324 130.938 10.3925C131.557 10.1424 132.07 9.75261 132.476 9.22314C132.883 8.68343 133.136 8.05484 133.233 7.33739C133.331 6.61994 133.254 5.95199 133.004 5.33354C132.755 4.70483 132.365 4.19269 131.834 3.7971C131.304 3.39125 130.68 3.13967 129.962 3.04234C129.244 2.94501 128.576 3.0214 127.957 3.27151C127.339 3.51137 126.827 3.90116 126.419 4.44088C126.013 4.97034 125.762 5.5938 125.664 6.31125C125.567 7.0287 125.642 7.70178 125.891 8.33048C126.142 8.94894 126.532 9.46108 127.062 9.86692C127.593 10.2625 128.217 10.509 128.935 10.6063Z" fill="#F4F4F4"/>
<path d="M148.445 5.29851L145.682 15.802L143.76 15.2972L146.089 6.4442L141.945 5.35558L141.164 7.95779C140.727 9.41513 140.293 10.579 139.86 11.4493C139.431 12.3097 138.943 12.9247 138.396 13.2944C137.852 13.6541 137.209 13.7367 136.469 13.5421C136.208 13.4738 135.866 13.3304 135.442 13.112L136.023 11.452C136.143 11.5262 136.288 11.5856 136.458 11.6303C137.068 11.7907 137.594 11.5437 138.033 10.8892C138.486 10.2273 138.947 9.12397 139.418 7.57922L140.712 3.26721L148.445 5.29851Z" fill="#F4F4F4"/>
<path d="M152.611 6.60669L154.458 7.33907L151.612 14.5064L159.884 9.49043L161.63 10.1828L157.622 20.2776L155.775 19.5452L158.615 12.3923L150.349 17.3938L148.603 16.7015L152.611 6.60669Z" fill="#F4F4F4"/>
<path d="M164.471 23.945C163.5 23.414 162.738 22.7264 162.185 21.8822C161.637 21.0289 161.345 20.1086 161.307 19.1213C161.274 18.1249 161.511 17.1639 162.017 16.2383C162.524 15.3126 163.203 14.5993 164.055 14.0983C164.913 13.5882 165.846 13.3379 166.855 13.3472C167.87 13.3474 168.863 13.613 169.834 14.144C170.806 14.675 171.566 15.3671 172.113 16.2204C172.666 17.0647 172.961 17.9804 172.999 18.9677C173.036 19.955 172.8 20.9161 172.288 21.8508C171.777 22.7855 171.095 23.5034 170.243 24.0043C169.391 24.5053 168.457 24.7557 167.443 24.7555C166.434 24.7461 165.443 24.476 164.471 23.945ZM165.32 22.3932C165.956 22.7406 166.605 22.9125 167.268 22.9091C167.935 22.8966 168.553 22.7156 169.122 22.3662C169.696 22.0078 170.156 21.5109 170.504 20.8757C170.851 20.2404 171.019 19.5893 171.006 18.9223C170.999 18.2462 170.818 17.6286 170.463 17.0693C170.114 16.5011 169.621 16.0432 168.985 15.6958C168.35 15.3485 167.698 15.181 167.031 15.1935C166.368 15.197 165.75 15.3779 165.176 15.7364C164.608 16.0858 164.149 16.5781 163.802 17.2134C163.454 17.8486 163.284 18.5043 163.292 19.1804C163.304 19.8474 163.485 20.465 163.835 21.0333C164.19 21.5925 164.685 22.0458 165.32 22.3932Z" fill="#F4F4F4"/>
<path d="M181.542 35.5195C180.697 34.8209 180.083 34.0048 179.7 33.0714C179.332 32.1365 179.223 31.1808 179.373 30.2042C179.531 29.2341 179.949 28.3386 180.629 27.5176C181.308 26.6965 182.114 26.1206 183.045 25.7899C183.977 25.4592 184.933 25.3906 185.915 25.5842C186.911 25.7763 187.832 26.2217 188.677 26.9203C189.363 27.4871 189.89 28.1241 190.259 28.8312C190.627 29.5382 190.819 30.2804 190.834 31.0578L189.047 31.1719C188.982 30.0174 188.507 29.0743 187.621 28.3427C187.047 27.8682 186.427 27.5706 185.761 27.4501C185.102 27.3215 184.46 27.375 183.835 27.6105C183.211 27.8459 182.664 28.2467 182.196 28.8126C181.728 29.3786 181.437 29.9902 181.323 30.6475C181.209 31.3049 181.273 31.9489 181.517 32.5796C181.767 33.2024 182.18 33.7511 182.754 34.2256C183.639 34.9572 184.659 35.2426 185.812 35.0819L186.026 36.8689C185.259 37.0003 184.49 36.9483 183.718 36.7129C182.953 36.4841 182.228 36.0863 181.542 35.5195Z" fill="#F4F4F4"/>
<path d="M193.164 46.5277L198.393 41.5761L191.606 43.0691L190.988 42.4146L192.806 35.7945L187.635 40.6708L186.324 39.2828L194.229 31.8298L195.369 33.0373L193.092 41.0928L201.239 39.2552L202.369 40.4514L194.485 47.927L193.164 46.5277Z" fill="#F4F4F4"/>
<path d="M199.021 54.1683C198.373 53.271 197.981 52.3224 197.846 51.3227C197.72 50.317 197.852 49.3604 198.244 48.4531C198.643 47.5397 199.271 46.7742 200.127 46.1567C200.983 45.5392 201.904 45.1878 202.889 45.1023C203.882 45.0108 204.832 45.1864 205.739 45.6292C206.655 46.0659 207.436 46.7329 208.085 47.6302C208.733 48.5276 209.12 49.4792 209.247 50.4849C209.382 51.4846 209.253 52.4382 208.862 53.3455C208.471 54.2529 207.843 55.0183 206.979 55.6418C206.114 56.2654 205.19 56.6199 204.205 56.7054C203.22 56.7908 202.269 56.6152 201.354 56.1785C200.447 55.7357 199.669 55.0657 199.021 54.1683ZM200.456 53.1331C200.88 53.7202 201.392 54.1547 201.991 54.4367C202.599 54.7126 203.235 54.8152 203.899 54.7446C204.571 54.6679 205.201 54.4177 205.788 53.9939C206.376 53.5701 206.807 53.0546 207.084 52.4472C207.368 51.8337 207.471 51.1984 207.392 50.5411C207.321 49.8777 207.074 49.2525 206.65 48.6654C206.226 48.0784 205.71 47.6469 205.102 47.371C204.502 47.089 203.867 46.9864 203.194 47.0631C202.531 47.1337 201.905 47.3809 201.318 47.8047C200.73 48.2284 200.294 48.747 200.01 49.3605C199.734 49.9678 199.631 50.6032 199.702 51.2666C199.781 51.9239 200.032 52.5461 200.456 53.1331Z" fill="#F4F4F4"/>
<path d="M215.643 63.2291L213.868 60.0968L205.897 64.6067L204.911 62.865L212.882 58.3552L211.115 55.2364L212.601 54.3956L217.129 62.3883L215.643 63.2291Z" fill="#F4F4F4"/>
<path d="M220.207 68.9842C220.586 69.8455 220.774 70.6558 220.77 71.4151C220.769 72.1838 220.579 72.8554 220.199 73.4297C219.819 74.004 219.264 74.4517 218.535 74.7729C217.815 75.0899 217.11 75.1969 216.42 75.0939C215.739 74.9867 215.115 74.6739 214.547 74.1554C213.983 73.6464 213.511 72.9612 213.132 72.0999L212.142 69.8567L209.273 71.1205L208.459 69.2749L218.404 64.8954L220.207 68.9842ZM214.657 71.3265C215.012 72.131 215.451 72.6664 215.976 72.9328C216.5 73.1991 217.08 73.1925 217.715 72.913C218.349 72.6336 218.745 72.2105 218.902 71.6439C219.06 71.0773 218.961 70.3918 218.606 69.5872L217.655 67.4292L213.705 69.1685L214.657 71.3265Z" fill="#F4F4F4"/>
<path d="M216.966 86.8762L215.355 87.3921L212.868 79.6353L223.218 76.3218L225.638 83.8718L224.026 84.3878L222.222 78.7585L219.531 79.62L221.132 84.6139L219.55 85.1204L217.949 80.1265L215.095 81.0401L216.966 86.8762Z" fill="#F4F4F4"/>
<path d="M226.573 95.5555L225.818 92.0362L216.862 93.9568L216.441 91.9999L225.397 90.0794L224.645 86.5752L226.315 86.2172L228.243 95.1975L226.573 95.5555Z" fill="#F4F4F4"/>
<path d="M225.595 103.316C225.74 104.611 225.559 105.636 225.05 106.391C224.552 107.154 223.733 107.6 222.591 107.728C221.398 107.862 220.44 107.584 219.716 106.895C219.004 106.205 218.57 105.171 218.415 103.794L217.894 99.153L228.694 97.9415L228.915 99.915L225.259 100.325L225.595 103.316ZM219.948 103.528C220.035 104.309 220.283 104.891 220.69 105.272C221.097 105.653 221.646 105.804 222.335 105.727C223.641 105.581 224.203 104.695 224.021 103.071L223.731 100.497L219.658 100.953L219.948 103.528Z" fill="#F4F4F4"/>
</svg>
